<svg version="1.1" id="Layer_1" xmlns="http://www.w3.org/2000/svg" 
	viewBox="0 0 512 512" style="enable-background:new 0 0 512 512;" xml:space="preserve">
	<linearGradient id="gradient" gradientTransform="rotate(90)">
      <stop offset="0%"  stop-color="#fd8b35" />
      <stop offset="100%" stop-color="#ae2776" />
    </linearGradient>
<g>
	<path d="M217.8,75.1l-19.2-11.5L9.2,379.8L9,380.1c-6.1,10.5-9,22.1-9,33.5c0,23.1,12.1,45.7,33.6,58.1l0,0c10,5.8,21.3,8.9,32.8,9
		l0.3,0h378.8l0.2,0c36.8-0.4,66.3-30.4,66.3-67.1l0-0.7c-0.1-11.5-3.2-22.8-9-32.8l-0.2-0.3L313.4,63.6l-0.1-0.1
		c-12.6-20.8-34.8-32.3-57.4-32.3c-11.8,0-23.9,3.2-34.7,9.7l0,0c-9.2,5.6-17,13.3-22.6,22.6l-0.1,0.1L217.8,75.1l19.1,11.6
		c1.9-3.1,4.4-5.6,7.5-7.5l0,0C248.1,77,252,76,256,76c7.6,0,14.9,3.8,19.2,10.8l-0.1-0.1l189.4,316.2l19.2-11.5l-19.4,11.2
		c1.9,3.3,3,7.1,3,10.9l0,0.2c0,12.2-9.9,22.3-22.1,22.4l0.2,22.4V436H66.6v22.4l0.3-22.4c-3.9,0-7.6-1.1-10.9-3l0,0
		c-7.2-4.2-11.2-11.6-11.2-19.4c0-3.8,0.9-7.5,3-11.1l-19.4-11.2l19.2,11.5L236.9,86.6l-0.1,0.1L217.8,75.1z" fill="url('#gradient')"  />
</g>
</svg>
